<svg xmlns="http://www.w3.org/2000/svg" viewBox="0 0 169.13 210.33"><defs><style>.cls-1{fill:#025a82;}.cls-2{fill:#023f61;}.cls-3{fill:#fff;}.cls-4{fill:#008abf;}</style></defs><title>Asset 5</title><g id="Layer_2" data-name="Layer 2"><g id="Layer_1-2" data-name="Layer 1"><path class="cls-1" d="M0,145.08V168c0,18.92,31.58,34.28,70.55,34.28s70.53-15.36,70.53-34.28V145.08Z"/><path class="cls-2" d="M141.08,145.08c0,18.94-31.58,34.29-70.53,34.29S0,164,0,145.08s31.58-34.29,70.55-34.29S141.08,126.15,141.08,145.08Z"/><path class="cls-1" d="M0,117.38v22.87c0,18.93,31.58,34.29,70.55,34.29s70.53-15.36,70.53-34.29V117.38Z"/><path class="cls-2" d="M141.08,117.38c0,18.94-31.58,34.29-70.53,34.29S0,136.32,0,117.38,31.58,83.09,70.55,83.09,141.08,98.45,141.08,117.38Z"/><path class="cls-1" d="M0,89.69v22.87c0,18.92,31.58,34.28,70.55,34.28s70.53-15.36,70.53-34.28V89.69Z"/><path class="cls-2" d="M141.08,89.69c0,18.94-31.58,34.29-70.53,34.29S0,108.63,0,89.69s31.58-34.3,70.55-34.3S141.08,70.75,141.08,89.69Z"/><path class="cls-1" d="M0,62V84.86c0,18.92,31.58,34.28,70.55,34.28s70.53-15.36,70.53-34.28V62Z"/><path class="cls-2" d="M141.08,62c0,18.94-31.58,34.29-70.53,34.29S0,80.93,0,62,31.58,27.7,70.55,27.7,141.08,43.06,141.08,62Z"/><path class="cls-1" d="M0,34.3V57.16C0,76.09,31.58,91.45,70.55,91.45s70.53-15.36,70.53-34.29V34.3Z"/><path class="cls-2" d="M141.08,34.3c0,18.94-31.58,34.29-70.53,34.29S0,53.24,0,34.3,31.58,0,70.55,0,141.08,15.36,141.08,34.3Z"/><polygon class="cls-3" points="99.52 120.63 138.47 120.63 138.47 139.85 142.52 143.4 161.75 143.4 161.75 202.59 99.52 202.59 99.52 120.63"/><path class="cls-4" d="M144,113H91.78v97.29h77.35V138.18ZM156.17,136h-10V126ZM99.36,202.74V120.63h39.26v19.12a3.8,3.8,0,0,0,3.8,3.8h19.12v59.19Z"/><rect class="cls-4" x="108.69" y="188.43" width="43.51" height="5.06"/><rect class="cls-4" x="108.69" y="140.92" width="25.83" height="5.06"/><polygon class="cls-4" points="143.15 157.02 145.96 157.02 135.12 167.86 126.65 159.39 107.91 178.12 111.49 181.7 126.65 166.54 135.12 175.02 149.53 160.6 149.53 163.4 154.59 163.4 154.59 151.97 143.15 151.97 143.15 157.02"/><rect class="cls-4" x="108.69" y="129.88" width="25.83" height="5.06"/></g></g></svg>